<svg width="24" height="24" viewBox="0 0 24 24" fill="none" xmlns="http://www.w3.org/2000/svg">
<g id="Icon">
<path id="Union" fill-rule="evenodd" clip-rule="evenodd" d="M12 3.75C7.44365 3.75 3.75 7.44365 3.75 12C3.75 12.8583 3.88108 13.6861 4.12432 14.4643C9.12474 12.1786 14.8753 12.1786 19.8757 14.4643C20.1189 13.6861 20.25 12.8583 20.25 12C20.25 7.44365 16.5563 3.75 12 3.75ZM12 20.25C8.83408 20.25 6.08466 18.4667 4.70145 15.8498C9.33224 13.7167 14.6678 13.7167 19.2986 15.8498C17.9153 18.4667 15.1659 20.25 12 20.25ZM2.25 12C2.25 6.61522 6.61522 2.25 12 2.25C17.3848 2.25 21.75 6.61522 21.75 12C21.75 17.3848 17.3848 21.75 12 21.75C6.61522 21.75 2.25 17.3848 2.25 12ZM14 10C14.5523 10 15 9.55228 15 9C15 8.44772 14.5523 8 14 8C13.4477 8 13 8.44772 13 9C13 9.55228 13.4477 10 14 10Z" fill="#473B4A"/>
</g>
</svg>
