<svg width="327" height="104" viewBox="0 0 327 104" fill="none" xmlns="http://www.w3.org/2000/svg">
<g clip-path="url(#clip0_92_2827)">
<rect width="327" height="104" rx="16" fill="white"/>
<rect x="0.5" y="0.5" width="326" height="103" rx="15.5" stroke="#B6B1B7" stroke-dasharray="7 7"/>
<path fill-rule="evenodd" clip-rule="evenodd" d="M164.5 35.25C164.914 35.25 165.25 35.5858 165.25 36V44C165.25 44.4142 164.914 44.75 164.5 44.75C164.086 44.75 163.75 44.4142 163.75 44V36C163.75 35.5858 164.086 35.25 164.5 35.25Z" fill="#726974"/>
<path fill-rule="evenodd" clip-rule="evenodd" d="M159.75 40C159.75 39.5858 160.086 39.25 160.5 39.25H168.5C168.914 39.25 169.25 39.5858 169.25 40C169.25 40.4142 168.914 40.75 168.5 40.75H160.5C160.086 40.75 159.75 40.4142 159.75 40Z" fill="#726974"/>
<path fill-rule="evenodd" clip-rule="evenodd" d="M164.5 31.75C159.943 31.75 156.25 35.4432 156.25 40C156.25 44.5568 159.943 48.25 164.5 48.25C169.057 48.25 172.75 44.5568 172.75 40C172.75 35.4432 169.057 31.75 164.5 31.75ZM154.75 40C154.75 34.6148 159.115 30.25 164.5 30.25C169.885 30.25 174.25 34.6148 174.25 40C174.25 45.3852 169.885 49.75 164.5 49.75C159.115 49.75 154.75 45.3852 154.75 40Z" fill="#726974"/>
<path d="M118.08 70C117.996 70 117.94 69.9627 117.912 69.888L117.352 68.124C117.343 68.096 117.324 68.082 117.296 68.082H113.11C113.082 68.082 113.063 68.096 113.054 68.124L112.494 69.888C112.466 69.9627 112.41 70 112.326 70H111.57C111.467 70 111.43 69.9487 111.458 69.846L114.552 60.312C114.58 60.2373 114.636 60.2 114.72 60.2H115.672C115.756 60.2 115.812 60.2373 115.84 60.312L118.948 69.846L118.962 69.902C118.962 69.9673 118.92 70 118.836 70H118.08ZM113.334 67.2C113.325 67.2187 113.325 67.2373 113.334 67.256C113.353 67.2653 113.371 67.27 113.39 67.27H117.002C117.021 67.27 117.035 67.2653 117.044 67.256C117.063 67.2373 117.067 67.2187 117.058 67.2L115.238 61.488C115.229 61.4693 115.215 61.46 115.196 61.46C115.177 61.46 115.163 61.4693 115.154 61.488L113.334 67.2ZM124.796 60.34C124.796 60.2467 124.843 60.2 124.936 60.2H125.65C125.744 60.2 125.79 60.2467 125.79 60.34V69.86C125.79 69.9533 125.744 70 125.65 70H124.936C124.843 70 124.796 69.9533 124.796 69.86V69.272C124.796 69.2533 124.787 69.244 124.768 69.244C124.759 69.2347 124.745 69.2393 124.726 69.258C124.521 69.5287 124.264 69.7387 123.956 69.888C123.658 70.0373 123.322 70.112 122.948 70.112C122.295 70.112 121.744 69.944 121.296 69.608C120.858 69.272 120.554 68.8147 120.386 68.236C120.256 67.816 120.19 67.2233 120.19 66.458C120.19 65.6833 120.246 65.1047 120.358 64.722C120.526 64.1247 120.834 63.658 121.282 63.322C121.73 62.9767 122.286 62.804 122.948 62.804C123.312 62.804 123.648 62.8787 123.956 63.028C124.264 63.168 124.521 63.3733 124.726 63.644C124.745 63.6627 124.759 63.672 124.768 63.672C124.787 63.6627 124.796 63.6487 124.796 63.63V60.34ZM124.544 68.166C124.628 67.9793 124.689 67.76 124.726 67.508C124.764 67.256 124.782 66.906 124.782 66.458C124.782 66.01 124.764 65.66 124.726 65.408C124.689 65.1467 124.624 64.918 124.53 64.722C124.418 64.4047 124.232 64.1527 123.97 63.966C123.718 63.77 123.415 63.672 123.06 63.672C122.687 63.672 122.365 63.7653 122.094 63.952C121.824 64.1387 121.628 64.386 121.506 64.694C121.394 64.8993 121.31 65.1327 121.254 65.394C121.208 65.646 121.184 66.0007 121.184 66.458C121.184 66.8967 121.203 67.242 121.24 67.494C121.278 67.7367 121.343 67.956 121.436 68.152C121.548 68.488 121.744 68.754 122.024 68.95C122.314 69.146 122.654 69.244 123.046 69.244C123.42 69.244 123.732 69.146 123.984 68.95C124.236 68.754 124.423 68.4927 124.544 68.166ZM132.439 60.34C132.439 60.2467 132.486 60.2 132.579 60.2H133.293C133.386 60.2 133.433 60.2467 133.433 60.34V69.86C133.433 69.9533 133.386 70 133.293 70H132.579C132.486 70 132.439 69.9533 132.439 69.86V69.272C132.439 69.2533 132.43 69.244 132.411 69.244C132.402 69.2347 132.388 69.2393 132.369 69.258C132.164 69.5287 131.907 69.7387 131.599 69.888C131.3 70.0373 130.964 70.112 130.591 70.112C129.938 70.112 129.387 69.944 128.939 69.608C128.5 69.272 128.197 68.8147 128.029 68.236C127.898 67.816 127.833 67.2233 127.833 66.458C127.833 65.6833 127.889 65.1047 128.001 64.722C128.169 64.1247 128.477 63.658 128.925 63.322C129.373 62.9767 129.928 62.804 130.591 62.804C130.955 62.804 131.291 62.8787 131.599 63.028C131.907 63.168 132.164 63.3733 132.369 63.644C132.388 63.6627 132.402 63.672 132.411 63.672C132.43 63.6627 132.439 63.6487 132.439 63.63V60.34ZM132.187 68.166C132.271 67.9793 132.332 67.76 132.369 67.508C132.406 67.256 132.425 66.906 132.425 66.458C132.425 66.01 132.406 65.66 132.369 65.408C132.332 65.1467 132.266 64.918 132.173 64.722C132.061 64.4047 131.874 64.1527 131.613 63.966C131.361 63.77 131.058 63.672 130.703 63.672C130.33 63.672 130.008 63.7653 129.737 63.952C129.466 64.1387 129.27 64.386 129.149 64.694C129.037 64.8993 128.953 65.1327 128.897 65.394C128.85 65.646 128.827 66.0007 128.827 66.458C128.827 66.8967 128.846 67.242 128.883 67.494C128.92 67.7367 128.986 67.956 129.079 68.152C129.191 68.488 129.387 68.754 129.667 68.95C129.956 69.146 130.297 69.244 130.689 69.244C131.062 69.244 131.375 69.146 131.627 68.95C131.879 68.754 132.066 68.4927 132.187 68.166ZM145.656 62.818C146.356 62.818 146.907 63.028 147.308 63.448C147.719 63.868 147.924 64.442 147.924 65.17V69.86C147.924 69.9533 147.877 70 147.784 70H147.084C146.991 70 146.944 69.9533 146.944 69.86V65.366C146.944 64.8527 146.795 64.4467 146.496 64.148C146.207 63.84 145.824 63.686 145.348 63.686C144.853 63.686 144.452 63.8353 144.144 64.134C143.845 64.4327 143.696 64.834 143.696 65.338V69.86C143.696 69.9533 143.649 70 143.556 70H142.842C142.749 70 142.702 69.9533 142.702 69.86V65.366C142.702 64.8527 142.557 64.4467 142.268 64.148C141.979 63.84 141.591 63.686 141.106 63.686C140.611 63.686 140.215 63.8353 139.916 64.134C139.627 64.4327 139.482 64.834 139.482 65.338V69.86C139.482 69.9533 139.435 70 139.342 70H138.628C138.535 70 138.488 69.9533 138.488 69.86V63.056C138.488 62.9627 138.535 62.916 138.628 62.916H139.342C139.435 62.916 139.482 62.9627 139.482 63.056V63.616C139.482 63.6347 139.487 63.6487 139.496 63.658C139.515 63.658 139.533 63.6487 139.552 63.63C139.757 63.3593 140.019 63.1587 140.336 63.028C140.663 62.888 141.022 62.818 141.414 62.818C141.899 62.818 142.315 62.916 142.66 63.112C143.005 63.308 143.267 63.5927 143.444 63.966C143.463 64.0127 143.486 64.0127 143.514 63.966C143.719 63.5833 144.009 63.2987 144.382 63.112C144.755 62.916 145.18 62.818 145.656 62.818ZM155.405 65.268C155.442 65.5293 155.461 65.856 155.461 66.248V66.696C155.461 66.7893 155.414 66.836 155.321 66.836H150.799C150.761 66.836 150.743 66.8547 150.743 66.892C150.761 67.4053 150.789 67.7367 150.827 67.886C150.929 68.306 151.149 68.6373 151.485 68.88C151.821 69.1227 152.25 69.244 152.773 69.244C153.165 69.244 153.51 69.1553 153.809 68.978C154.107 68.8007 154.341 68.5487 154.509 68.222C154.565 68.138 154.63 68.1193 154.705 68.166L155.251 68.488C155.325 68.5347 155.344 68.6 155.307 68.684C155.073 69.132 154.723 69.4867 154.257 69.748C153.79 70 153.253 70.126 152.647 70.126C151.984 70.1167 151.429 69.958 150.981 69.65C150.533 69.342 150.211 68.9127 150.015 68.362C149.847 67.914 149.763 67.27 149.763 66.43C149.763 66.038 149.767 65.7207 149.777 65.478C149.795 65.226 149.833 65.002 149.889 64.806C150.047 64.1993 150.365 63.714 150.841 63.35C151.326 62.986 151.909 62.804 152.591 62.804C153.44 62.804 154.093 63.0187 154.551 63.448C155.008 63.8773 155.293 64.484 155.405 65.268ZM152.591 63.672C152.133 63.672 151.751 63.7933 151.443 64.036C151.144 64.2693 150.948 64.5867 150.855 64.988C150.799 65.184 150.761 65.5013 150.743 65.94C150.743 65.9773 150.761 65.996 150.799 65.996H154.425C154.462 65.996 154.481 65.9773 154.481 65.94C154.462 65.52 154.434 65.2213 154.397 65.044C154.294 64.624 154.084 64.2927 153.767 64.05C153.459 63.798 153.067 63.672 152.591 63.672ZM160.377 62.818C161.124 62.818 161.717 63.0373 162.155 63.476C162.603 63.9147 162.827 64.5027 162.827 65.24V69.86C162.827 69.9533 162.781 70 162.687 70H161.973C161.88 70 161.833 69.9533 161.833 69.86V65.436C161.833 64.9227 161.675 64.5027 161.357 64.176C161.049 63.8493 160.648 63.686 160.153 63.686C159.64 63.686 159.225 63.8447 158.907 64.162C158.59 64.4793 158.431 64.8947 158.431 65.408V69.86C158.431 69.9533 158.385 70 158.291 70H157.577C157.484 70 157.437 69.9533 157.437 69.86V63.056C157.437 62.9627 157.484 62.916 157.577 62.916H158.291C158.385 62.916 158.431 62.9627 158.431 63.056V63.658C158.431 63.6767 158.436 63.6907 158.445 63.7C158.464 63.7093 158.478 63.7047 158.487 63.686C158.898 63.1073 159.528 62.818 160.377 62.818ZM169.268 63.056C169.268 62.9627 169.315 62.916 169.408 62.916H170.122C170.216 62.916 170.262 62.9627 170.262 63.056V69.86C170.262 69.9533 170.216 70 170.122 70H169.408C169.315 70 169.268 69.9533 169.268 69.86V69.258C169.268 69.2393 169.259 69.2253 169.24 69.216C169.222 69.2067 169.208 69.2113 169.198 69.23C168.806 69.8087 168.186 70.098 167.336 70.098C166.888 70.098 166.473 70.0093 166.09 69.832C165.717 69.6453 165.418 69.3793 165.194 69.034C164.98 68.6887 164.872 68.2733 164.872 67.788V63.056C164.872 62.9627 164.919 62.916 165.012 62.916H165.726C165.82 62.916 165.866 62.9627 165.866 63.056V67.494C165.866 68.026 166.016 68.4507 166.314 68.768C166.613 69.076 167.019 69.23 167.532 69.23C168.064 69.23 168.484 69.0713 168.792 68.754C169.11 68.4367 169.268 68.0167 169.268 67.494V63.056ZM175.965 61.628C175.741 61.628 175.554 61.5533 175.405 61.404C175.256 61.2547 175.181 61.068 175.181 60.844C175.181 60.6107 175.256 60.424 175.405 60.284C175.554 60.1347 175.741 60.06 175.965 60.06C176.189 60.06 176.376 60.1347 176.525 60.284C176.674 60.424 176.749 60.6107 176.749 60.844C176.749 61.068 176.674 61.2547 176.525 61.404C176.376 61.5533 176.189 61.628 175.965 61.628ZM175.573 69.986C175.48 69.986 175.433 69.9393 175.433 69.846V63.042C175.433 62.9487 175.48 62.902 175.573 62.902H176.287C176.38 62.902 176.427 62.9487 176.427 63.042V69.846C176.427 69.9393 176.38 69.986 176.287 69.986H175.573ZM186.029 62.818C186.729 62.818 187.28 63.028 187.681 63.448C188.092 63.868 188.297 64.442 188.297 65.17V69.86C188.297 69.9533 188.251 70 188.157 70H187.457C187.364 70 187.317 69.9533 187.317 69.86V65.366C187.317 64.8527 187.168 64.4467 186.869 64.148C186.58 63.84 186.197 63.686 185.721 63.686C185.227 63.686 184.825 63.8353 184.517 64.134C184.219 64.4327 184.069 64.834 184.069 65.338V69.86C184.069 69.9533 184.023 70 183.929 70H183.215C183.122 70 183.075 69.9533 183.075 69.86V65.366C183.075 64.8527 182.931 64.4467 182.641 64.148C182.352 63.84 181.965 63.686 181.479 63.686C180.985 63.686 180.588 63.8353 180.289 64.134C180 64.4327 179.855 64.834 179.855 65.338V69.86C179.855 69.9533 179.809 70 179.715 70H179.001C178.908 70 178.861 69.9533 178.861 69.86V63.056C178.861 62.9627 178.908 62.916 179.001 62.916H179.715C179.809 62.916 179.855 62.9627 179.855 63.056V63.616C179.855 63.6347 179.86 63.6487 179.869 63.658C179.888 63.658 179.907 63.6487 179.925 63.63C180.131 63.3593 180.392 63.1587 180.709 63.028C181.036 62.888 181.395 62.818 181.787 62.818C182.273 62.818 182.688 62.916 183.033 63.112C183.379 63.308 183.64 63.5927 183.817 63.966C183.836 64.0127 183.859 64.0127 183.887 63.966C184.093 63.5833 184.382 63.2987 184.755 63.112C185.129 62.916 185.553 62.818 186.029 62.818ZM192.891 62.804C193.731 62.804 194.38 63.0187 194.837 63.448C195.295 63.8773 195.523 64.4467 195.523 65.156V69.86C195.523 69.9533 195.477 70 195.383 70H194.669C194.576 70 194.529 69.9533 194.529 69.86V69.286C194.529 69.2673 194.52 69.2533 194.501 69.244C194.492 69.2347 194.478 69.2393 194.459 69.258C194.226 69.538 193.923 69.7527 193.549 69.902C193.176 70.042 192.761 70.112 192.303 70.112C191.641 70.112 191.085 69.944 190.637 69.608C190.189 69.272 189.965 68.7587 189.965 68.068C189.965 67.368 190.217 66.8173 190.721 66.416C191.235 66.0053 191.944 65.8 192.849 65.8H194.473C194.511 65.8 194.529 65.7813 194.529 65.744V65.212C194.529 64.736 194.394 64.3627 194.123 64.092C193.862 63.812 193.451 63.672 192.891 63.672C192.443 63.672 192.079 63.7607 191.799 63.938C191.519 64.106 191.347 64.344 191.281 64.652C191.253 64.7453 191.197 64.7873 191.113 64.778L190.357 64.68C190.255 64.6613 190.213 64.624 190.231 64.568C190.306 64.0453 190.586 63.6207 191.071 63.294C191.557 62.9673 192.163 62.804 192.891 62.804ZM192.499 69.258C193.05 69.258 193.526 69.1227 193.927 68.852C194.329 68.572 194.529 68.1987 194.529 67.732V66.64C194.529 66.6027 194.511 66.584 194.473 66.584H193.003C192.387 66.584 191.893 66.71 191.519 66.962C191.146 67.214 190.959 67.564 190.959 68.012C190.959 68.4227 191.099 68.7353 191.379 68.95C191.669 69.1553 192.042 69.258 192.499 69.258ZM201.96 63.056C201.96 62.9627 202.006 62.916 202.1 62.916H202.814C202.907 62.916 202.954 62.9627 202.954 63.056V69.762C202.954 70.8073 202.65 71.5727 202.044 72.058C201.446 72.5433 200.62 72.786 199.566 72.786C199.351 72.786 199.188 72.7813 199.076 72.772C198.982 72.7627 198.936 72.7113 198.936 72.618L198.964 71.974C198.964 71.9273 198.978 71.89 199.006 71.862C199.034 71.8433 199.066 71.8387 199.104 71.848L199.482 71.862C200.35 71.862 200.98 71.6893 201.372 71.344C201.764 71.008 201.96 70.4713 201.96 69.734V69.216C201.96 69.1973 201.95 69.188 201.932 69.188C201.922 69.1787 201.908 69.1833 201.89 69.202C201.46 69.762 200.849 70.042 200.056 70.042C199.449 70.042 198.908 69.8787 198.432 69.552C197.965 69.2253 197.652 68.7633 197.494 68.166C197.382 67.7833 197.326 67.214 197.326 66.458C197.326 66.0473 197.335 65.702 197.354 65.422C197.382 65.142 197.433 64.89 197.508 64.666C197.676 64.106 197.979 63.658 198.418 63.322C198.856 62.9767 199.384 62.804 200 62.804C200.83 62.804 201.46 63.0793 201.89 63.63C201.908 63.6487 201.922 63.6533 201.932 63.644C201.95 63.6347 201.96 63.6207 201.96 63.602V63.056ZM201.89 67.858C201.918 67.718 201.936 67.5453 201.946 67.34C201.955 67.1347 201.96 66.836 201.96 66.444C201.96 65.968 201.955 65.6507 201.946 65.492C201.936 65.324 201.913 65.17 201.876 65.03C201.801 64.638 201.614 64.316 201.316 64.064C201.026 63.8027 200.658 63.672 200.21 63.672C199.771 63.672 199.398 63.798 199.09 64.05C198.791 64.302 198.581 64.6287 198.46 65.03C198.366 65.3287 198.32 65.7953 198.32 66.43C198.32 67.1113 198.366 67.5827 198.46 67.844C198.553 68.236 198.754 68.5627 199.062 68.824C199.379 69.076 199.762 69.202 200.21 69.202C200.667 69.202 201.04 69.076 201.33 68.824C201.628 68.572 201.815 68.25 201.89 67.858ZM210.516 65.268C210.553 65.5293 210.572 65.856 210.572 66.248V66.696C210.572 66.7893 210.525 66.836 210.432 66.836H205.91C205.873 66.836 205.854 66.8547 205.854 66.892C205.873 67.4053 205.901 67.7367 205.938 67.886C206.041 68.306 206.26 68.6373 206.596 68.88C206.932 69.1227 207.361 69.244 207.884 69.244C208.276 69.244 208.621 69.1553 208.92 68.978C209.219 68.8007 209.452 68.5487 209.62 68.222C209.676 68.138 209.741 68.1193 209.816 68.166L210.362 68.488C210.437 68.5347 210.455 68.6 210.418 68.684C210.185 69.132 209.835 69.4867 209.368 69.748C208.901 70 208.365 70.126 207.758 70.126C207.095 70.1167 206.54 69.958 206.092 69.65C205.644 69.342 205.322 68.9127 205.126 68.362C204.958 67.914 204.874 67.27 204.874 66.43C204.874 66.038 204.879 65.7207 204.888 65.478C204.907 65.226 204.944 65.002 205 64.806C205.159 64.1993 205.476 63.714 205.952 63.35C206.437 62.986 207.021 62.804 207.702 62.804C208.551 62.804 209.205 63.0187 209.662 63.448C210.119 63.8773 210.404 64.484 210.516 65.268ZM207.702 63.672C207.245 63.672 206.862 63.7933 206.554 64.036C206.255 64.2693 206.059 64.5867 205.966 64.988C205.91 65.184 205.873 65.5013 205.854 65.94C205.854 65.9773 205.873 65.996 205.91 65.996H209.536C209.573 65.996 209.592 65.9773 209.592 65.94C209.573 65.52 209.545 65.2213 209.508 65.044C209.405 64.624 209.195 64.2927 208.878 64.05C208.57 63.798 208.178 63.672 207.702 63.672ZM214.75 70.07C214.227 70.07 213.76 69.986 213.35 69.818C212.948 69.65 212.636 69.426 212.412 69.146C212.197 68.866 212.09 68.5533 212.09 68.208V68.04C212.09 67.9467 212.136 67.9 212.23 67.9H212.902C212.995 67.9 213.042 67.9467 213.042 68.04V68.152C213.042 68.46 213.2 68.7307 213.518 68.964C213.844 69.188 214.25 69.3 214.736 69.3C215.221 69.3 215.613 69.1927 215.912 68.978C216.21 68.754 216.36 68.474 216.36 68.138C216.36 67.9047 216.28 67.7133 216.122 67.564C215.972 67.4147 215.79 67.298 215.576 67.214C215.37 67.13 215.048 67.0227 214.61 66.892C214.087 66.7427 213.658 66.5933 213.322 66.444C212.986 66.2947 212.701 66.0893 212.468 65.828C212.244 65.5573 212.132 65.2167 212.132 64.806C212.132 64.2087 212.365 63.7327 212.832 63.378C213.298 63.0233 213.914 62.846 214.68 62.846C215.193 62.846 215.646 62.93 216.038 63.098C216.439 63.266 216.747 63.4993 216.962 63.798C217.176 64.0873 217.284 64.414 217.284 64.778V64.82C217.284 64.9133 217.237 64.96 217.144 64.96H216.486C216.392 64.96 216.346 64.9133 216.346 64.82V64.778C216.346 64.4607 216.192 64.1947 215.884 63.98C215.585 63.7653 215.179 63.658 214.666 63.658C214.19 63.658 213.807 63.756 213.518 63.952C213.228 64.1387 213.084 64.4 213.084 64.736C213.084 65.0533 213.224 65.296 213.504 65.464C213.784 65.632 214.218 65.8 214.806 65.968C215.347 66.1267 215.786 66.276 216.122 66.416C216.458 66.556 216.747 66.7613 216.99 67.032C217.232 67.2933 217.354 67.6387 217.354 68.068C217.354 68.6747 217.116 69.16 216.64 69.524C216.164 69.888 215.534 70.07 214.75 70.07Z" fill="#726974"/>
<rect x="72" y="72" width="24" height="24" rx="12" fill="white"/>
<rect x="8" y="72" width="24" height="24" rx="12" fill="white"/>
</g>
<defs>
<clipPath id="clip0_92_2827">
<rect width="327" height="104" rx="16" fill="white"/>
</clipPath>
</defs>
</svg>
