<svg width="16" height="16" viewBox="0 0 16 16" fill="none" xmlns="http://www.w3.org/2000/svg">
<g id="Icon">
<path id="Union" fill-rule="evenodd" clip-rule="evenodd" d="M6.07327 3.24917C6.10292 3.19832 6.15768 3.16666 6.21733 3.16666H9.75333C9.81174 3.16666 9.8662 3.19745 9.89655 3.24762L10.9048 4.92433C10.9953 5.07469 11.1579 5.16666 11.3333 5.16666H12.6667C13.1272 5.16666 13.5 5.53947 13.5 5.99999V12C13.5 12.4605 13.1272 12.8333 12.6667 12.8333H3.33333C2.87281 12.8333 2.5 12.4605 2.5 12V5.99999C2.5 5.53947 2.87281 5.16666 3.33333 5.16666H4.66667C4.84443 5.16666 5.00883 5.07228 5.09846 4.91876L6.07327 3.24917ZM6.21733 2.16666C5.80242 2.16666 5.4186 2.38688 5.20954 2.74522L4.37961 4.16666H3.33333C2.32052 4.16666 1.5 4.98718 1.5 5.99999V12C1.5 13.0128 2.32052 13.8333 3.33333 13.8333H12.6667C13.6795 13.8333 14.5 13.0128 14.5 12V5.99999C14.5 4.98718 13.6795 4.16666 12.6667 4.16666H11.6161L10.7532 2.73165L10.7528 2.73103C10.5418 2.3813 10.1629 2.16666 9.75333 2.16666H6.21733ZM6.51404 7.13207C7.35679 6.28932 8.72316 6.28932 9.56592 7.13207C10.4087 7.97482 10.4087 9.3412 9.56592 10.1839C8.72316 11.0267 7.35679 11.0267 6.51404 10.1839C5.67129 9.3412 5.67129 7.97482 6.51404 7.13207ZM5.80694 6.42497C7.04021 5.19169 9.03975 5.19169 10.273 6.42497C11.5063 7.65824 11.5063 9.65778 10.273 10.8911C9.03975 12.1243 7.04021 12.1243 5.80694 10.8911C4.57366 9.65778 4.57366 7.65824 5.80694 6.42497Z" fill="white"/>
</g>
</svg>
