<svg width="24" height="24" viewBox="0 0 24 24" fill="none" xmlns="http://www.w3.org/2000/svg">
<g id="Icon">
<path id="Union" fill-rule="evenodd" clip-rule="evenodd" d="M7.99622 2.24625C4.82058 2.24625 2.24622 4.82061 2.24622 7.99624V16.0037C2.24622 19.1794 4.82058 21.7537 7.99621 21.7537H16.0037C19.1794 21.7537 21.7537 19.1794 21.7537 16.0037V7.99625C21.7537 4.82061 19.1794 2.24625 16.0037 2.24625H7.99622ZM3.74622 7.99624C3.74622 5.64903 5.649 3.74625 7.99622 3.74625H16.0037C18.3509 3.74625 20.2537 5.64904 20.2537 7.99625V16.0037C20.2537 18.351 18.3509 20.2537 16.0037 20.2537H7.99621C5.649 20.2537 3.74622 18.351 3.74622 16.0037V7.99624ZM4.99997 7.99999C4.99997 6.34314 6.34311 5 7.99997 5H16.01C17.6668 5 19.01 6.34314 19.01 8V16.01C19.01 17.6669 17.6668 19.01 16.01 19.01H7.99997C6.34311 19.01 4.99997 17.6669 4.99997 16.01V7.99999ZM15.7361 9.58185C16.0289 9.87483 16.0287 10.3497 15.7358 10.6425L11.7317 14.6442C11.4391 14.9366 10.965 14.9369 10.672 14.6448L8.26481 12.2448C7.97148 11.9524 7.97076 11.4775 8.26322 11.1842C8.55567 10.8908 9.03055 10.8901 9.32388 11.1826L11.2009 13.054L14.6754 9.58153C14.9684 9.28872 15.4433 9.28887 15.7361 9.58185Z" fill="#7E0095"/>
</g>
</svg>
