<svg width="24" height="24" viewBox="0 0 24 24" fill="none" xmlns="http://www.w3.org/2000/svg">
<g id="Icon">
<path id="Rectangle (Stroke)" fill-rule="evenodd" clip-rule="evenodd" d="M2.24622 7.99624C2.24622 4.82061 4.82058 2.24625 7.99622 2.24625H16.0037C19.1794 2.24625 21.7537 4.82061 21.7537 7.99625V16.0037C21.7537 19.1794 19.1794 21.7537 16.0037 21.7537H7.99621C4.82058 21.7537 2.24622 19.1794 2.24622 16.0037V7.99624ZM7.99622 3.74625C5.649 3.74625 3.74622 5.64903 3.74622 7.99624V16.0037C3.74622 18.351 5.649 20.2537 7.99621 20.2537H16.0037C18.3509 20.2537 20.2537 18.351 20.2537 16.0037V7.99625C20.2537 5.64904 18.3509 3.74625 16.0037 3.74625H7.99622Z" fill="#473B4A"/>
</g>
</svg>
